<svg width="933" height="162" viewBox="0 0 933 162" fill="none" xmlns="http://www.w3.org/2000/svg">
<path d="M230.52 95.2C224.2 95.2 219.36 93.4 216 89.8C212.72 86.2 211.08 81.12 211.08 74.56V29.44C211.08 22.88 212.72 17.8 216 14.2C219.36 10.6 224.2 8.8 230.52 8.8C236.84 8.8 241.64 10.6 244.92 14.2C248.28 17.8 249.96 22.88 249.96 29.44V38.32H237.48V28.6C237.48 23.4 235.28 20.8 230.88 20.8C226.48 20.8 224.28 23.4 224.28 28.6V75.52C224.28 80.64 226.48 83.2 230.88 83.2C235.28 83.2 237.48 80.64 237.48 75.52V62.68H249.96V74.56C249.96 81.12 248.28 86.2 244.92 89.8C241.64 93.4 236.84 95.2 230.52 95.2ZM277.172 95.2C270.692 95.2 265.732 93.36 262.292 89.68C258.852 86 257.132 80.8 257.132 74.08V29.92C257.132 23.2 258.852 18 262.292 14.32C265.732 10.64 270.692 8.8 277.172 8.8C283.652 8.8 288.612 10.64 292.052 14.32C295.492 18 297.212 23.2 297.212 29.92V74.08C297.212 80.8 295.492 86 292.052 89.68C288.612 93.36 283.652 95.2 277.172 95.2ZM277.172 83.2C281.732 83.2 284.012 80.44 284.012 74.92V29.08C284.012 23.56 281.732 20.8 277.172 20.8C272.612 20.8 270.332 23.56 270.332 29.08V74.92C270.332 80.44 272.612 83.2 277.172 83.2ZM306.139 9.99999H341.059V22H319.339V45.4H336.379V57.4H319.339V94H306.139V9.99999ZM347.389 9.99999H382.309V22H360.589V45.4H377.629V57.4H360.589V94H347.389V9.99999ZM388.639 9.99999H424.639V22H401.839V44.2H419.959V56.2H401.839V82H424.639V94H388.639V9.99999ZM432.233 9.99999H468.233V22H445.433V44.2H463.553V56.2H445.433V82H468.233V94H432.233V9.99999ZM495.045 9.99999H508.245V82H529.965V94H495.045V9.99999ZM546.964 9.99999H564.844L578.524 94H565.324L562.924 77.32V77.56H547.924L545.524 94H533.284L546.964 9.99999ZM561.364 66.16L555.484 24.64H555.244L549.484 66.16H561.364ZM584.928 9.99999H604.848C611.648 9.99999 616.608 11.6 619.728 14.8C622.848 17.92 624.408 22.76 624.408 29.32V32.68C624.408 37 623.688 40.52 622.248 43.24C620.888 45.96 618.768 47.92 615.888 49.12V49.36C622.448 51.6 625.728 57.44 625.728 66.88V74.08C625.728 80.56 624.008 85.52 620.568 88.96C617.208 92.32 612.248 94 605.688 94H584.928V9.99999ZM603.288 44.2C605.928 44.2 607.888 43.52 609.168 42.16C610.528 40.8 611.208 38.52 611.208 35.32V30.64C611.208 27.6 610.648 25.4 609.528 24.04C608.488 22.68 606.808 22 604.488 22H598.128V44.2H603.288ZM605.688 82C608.008 82 609.728 81.4 610.848 80.2C611.968 78.92 612.528 76.76 612.528 73.72V66.4C612.528 62.56 611.848 59.92 610.488 58.48C609.208 56.96 607.048 56.2 604.008 56.2H598.128V82H605.688ZM669.822 95.2C663.422 95.2 658.582 93.4 655.302 89.8C652.022 86.12 650.382 80.88 650.382 74.08V69.28H662.862V75.04C662.862 80.48 665.142 83.2 669.702 83.2C671.942 83.2 673.622 82.56 674.742 81.28C675.942 79.92 676.542 77.76 676.542 74.8C676.542 71.28 675.742 68.2 674.142 65.56C672.542 62.84 669.582 59.6 665.262 55.84C659.822 51.04 656.022 46.72 653.862 42.88C651.702 38.96 650.622 34.56 650.622 29.68C650.622 23.04 652.302 17.92 655.662 14.32C659.022 10.64 663.902 8.8 670.302 8.8C676.622 8.8 681.382 10.64 684.582 14.32C687.862 17.92 689.502 23.12 689.502 29.92V33.4H677.022V29.08C677.022 26.2 676.462 24.12 675.342 22.84C674.222 21.48 672.582 20.8 670.422 20.8C666.022 20.8 663.822 23.48 663.822 28.84C663.822 31.88 664.622 34.72 666.222 37.36C667.902 40 670.902 43.2 675.222 46.96C680.742 51.76 684.542 56.12 686.622 60.04C688.702 63.96 689.742 68.56 689.742 73.84C689.742 80.72 688.022 86 684.582 89.68C681.222 93.36 676.302 95.2 669.822 95.2ZM715.911 95.2C709.591 95.2 704.751 93.4 701.391 89.8C698.111 86.2 696.471 81.12 696.471 74.56V29.44C696.471 22.88 698.111 17.8 701.391 14.2C704.751 10.6 709.591 8.8 715.911 8.8C722.231 8.8 727.031 10.6 730.311 14.2C733.671 17.8 735.351 22.88 735.351 29.44V38.32H722.871V28.6C722.871 23.4 720.671 20.8 716.271 20.8C711.871 20.8 709.671 23.4 709.671 28.6V75.52C709.671 80.64 711.871 83.2 716.271 83.2C720.671 83.2 722.871 80.64 722.871 75.52V62.68H735.351V74.56C735.351 81.12 733.671 86.2 730.311 89.8C727.031 93.4 722.231 95.2 715.911 95.2ZM743.248 9.99999H756.448V44.2H770.608V9.99999H783.808V94H770.608V56.2H756.448V94H743.248V9.99999ZM812.719 95.2C806.239 95.2 801.279 93.36 797.839 89.68C794.399 86 792.679 80.8 792.679 74.08V29.92C792.679 23.2 794.399 18 797.839 14.32C801.279 10.64 806.239 8.8 812.719 8.8C819.199 8.8 824.159 10.64 827.599 14.32C831.039 18 832.759 23.2 832.759 29.92V74.08C832.759 80.8 831.039 86 827.599 89.68C824.159 93.36 819.199 95.2 812.719 95.2ZM812.719 83.2C817.279 83.2 819.559 80.44 819.559 74.92V29.08C819.559 23.56 817.279 20.8 812.719 20.8C808.159 20.8 805.879 23.56 805.879 29.08V74.92C805.879 80.44 808.159 83.2 812.719 83.2ZM860.766 95.2C854.286 95.2 849.326 93.36 845.886 89.68C842.446 86 840.726 80.8 840.726 74.08V29.92C840.726 23.2 842.446 18 845.886 14.32C849.326 10.64 854.286 8.8 860.766 8.8C867.246 8.8 872.206 10.64 875.646 14.32C879.086 18 880.806 23.2 880.806 29.92V74.08C880.806 80.8 879.086 86 875.646 89.68C872.206 93.36 867.246 95.2 860.766 95.2ZM860.766 83.2C865.326 83.2 867.606 80.44 867.606 74.92V29.08C867.606 23.56 865.326 20.8 860.766 20.8C856.206 20.8 853.926 23.56 853.926 29.08V74.92C853.926 80.44 856.206 83.2 860.766 83.2ZM889.733 9.99999H902.933V82H924.653V94H889.733V9.99999Z" fill="white"/>
<path d="M215.145 128.562L224.441 151.766L233.738 128.562H238.602V157H234.852V145.926L235.203 133.973L225.867 157H222.996L213.68 134.031L214.051 145.926V157H210.301V128.562H215.145ZM268.077 149.578H256.163L253.487 157H249.62L260.48 128.562H263.761L274.64 157H270.792L268.077 149.578ZM257.296 146.492H266.964L262.12 133.191L257.296 146.492ZM293.647 144.324C290.431 143.4 288.087 142.267 286.616 140.926C285.157 139.572 284.428 137.905 284.428 135.926C284.428 133.686 285.32 131.837 287.104 130.379C288.901 128.908 291.232 128.172 294.096 128.172C296.049 128.172 297.787 128.549 299.311 129.305C300.847 130.06 302.032 131.102 302.866 132.43C303.712 133.758 304.135 135.21 304.135 136.785H300.366C300.366 135.066 299.819 133.719 298.725 132.742C297.631 131.753 296.088 131.258 294.096 131.258C292.247 131.258 290.802 131.668 289.76 132.488C288.732 133.296 288.217 134.422 288.217 135.867C288.217 137.026 288.705 138.009 289.682 138.816C290.672 139.611 292.345 140.34 294.702 141.004C297.071 141.668 298.92 142.404 300.248 143.211C301.59 144.005 302.579 144.936 303.217 146.004C303.868 147.072 304.194 148.328 304.194 149.773C304.194 152.078 303.295 153.927 301.498 155.32C299.702 156.701 297.299 157.391 294.291 157.391C292.338 157.391 290.515 157.02 288.823 156.277C287.13 155.522 285.821 154.493 284.897 153.191C283.985 151.889 283.53 150.411 283.53 148.758H287.299C287.299 150.477 287.931 151.837 289.194 152.84C290.47 153.829 292.169 154.324 294.291 154.324C296.271 154.324 297.787 153.921 298.842 153.113C299.897 152.306 300.424 151.206 300.424 149.812C300.424 148.419 299.936 147.345 298.959 146.59C297.983 145.822 296.212 145.066 293.647 144.324ZM335.466 131.648H326.326V157H322.595V131.648H313.474V128.562H335.466V131.648ZM362.559 143.855H350.235V153.934H364.552V157H346.485V128.562H364.356V131.648H350.235V140.789H362.559V143.855ZM386.449 145.496H379.77V157H376V128.562H385.414C388.617 128.562 391.078 129.292 392.797 130.75C394.529 132.208 395.395 134.331 395.395 137.117C395.395 138.888 394.913 140.431 393.949 141.746C392.999 143.061 391.671 144.044 389.965 144.695L396.645 156.766V157H392.621L386.449 145.496ZM379.77 142.43H385.531C387.393 142.43 388.871 141.948 389.965 140.984C391.072 140.021 391.625 138.732 391.625 137.117C391.625 135.359 391.098 134.012 390.043 133.074C389.001 132.137 387.491 131.661 385.512 131.648H379.77V142.43ZM432.862 142.84L440.284 128.562H444.541L434.737 146.395V157H430.987V146.395L421.182 128.562H425.479L432.862 142.84ZM476.302 143.699C476.302 146.486 475.834 148.921 474.896 151.004C473.959 153.074 472.63 154.656 470.912 155.75C469.193 156.844 467.188 157.391 464.896 157.391C462.657 157.391 460.671 156.844 458.939 155.75C457.207 154.643 455.86 153.074 454.896 151.043C453.946 148.999 453.457 146.635 453.431 143.953V141.902C453.431 139.168 453.907 136.753 454.857 134.656C455.808 132.56 457.149 130.958 458.88 129.852C460.625 128.732 462.617 128.172 464.857 128.172C467.136 128.172 469.141 128.725 470.873 129.832C472.617 130.926 473.959 132.521 474.896 134.617C475.834 136.701 476.302 139.129 476.302 141.902V143.699ZM472.572 141.863C472.572 138.491 471.895 135.906 470.541 134.109C469.186 132.299 467.292 131.395 464.857 131.395C462.487 131.395 460.619 132.299 459.252 134.109C457.897 135.906 457.201 138.406 457.162 141.609V143.699C457.162 146.967 457.845 149.539 459.212 151.414C460.593 153.276 462.487 154.207 464.896 154.207C467.318 154.207 469.193 153.328 470.521 151.57C471.849 149.799 472.533 147.267 472.572 143.973V141.863ZM508.747 128.562V147.898C508.734 150.581 507.888 152.775 506.208 154.48C504.541 156.186 502.276 157.143 499.411 157.352L498.415 157.391C495.303 157.391 492.822 156.551 490.973 154.871C489.124 153.191 488.187 150.88 488.161 147.938V128.562H491.872V147.82C491.872 149.878 492.438 151.479 493.571 152.625C494.704 153.758 496.319 154.324 498.415 154.324C500.537 154.324 502.158 153.758 503.278 152.625C504.411 151.492 504.977 149.897 504.977 147.84V128.562H508.747ZM531.895 145.496H525.215V157H521.445V128.562H530.859C534.062 128.562 536.523 129.292 538.242 130.75C539.974 132.208 540.84 134.331 540.84 137.117C540.84 138.888 540.358 140.431 539.395 141.746C538.444 143.061 537.116 144.044 535.41 144.695L542.09 156.766V157H538.066L531.895 145.496ZM525.215 142.43H530.977C532.839 142.43 534.316 141.948 535.41 140.984C536.517 140.021 537.07 138.732 537.07 137.117C537.07 135.359 536.543 134.012 535.488 133.074C534.447 132.137 532.936 131.661 530.957 131.648H525.215V142.43ZM590.553 147.977C590.202 150.984 589.088 153.309 587.213 154.949C585.351 156.577 582.871 157.391 579.772 157.391C576.413 157.391 573.717 156.186 571.686 153.777C569.668 151.368 568.659 148.146 568.659 144.109V141.375C568.659 138.732 569.127 136.408 570.065 134.402C571.015 132.397 572.357 130.861 574.088 129.793C575.82 128.712 577.825 128.172 580.104 128.172C583.125 128.172 585.547 129.018 587.37 130.711C589.192 132.391 590.254 134.721 590.553 137.703H586.784C586.458 135.438 585.748 133.797 584.655 132.781C583.574 131.766 582.057 131.258 580.104 131.258C577.708 131.258 575.827 132.143 574.459 133.914C573.105 135.685 572.428 138.204 572.428 141.473V144.227C572.428 147.312 573.073 149.767 574.362 151.59C575.651 153.413 577.454 154.324 579.772 154.324C581.855 154.324 583.45 153.855 584.557 152.918C585.677 151.967 586.419 150.32 586.784 147.977H590.553ZM624.365 143.699C624.365 146.486 623.896 148.921 622.959 151.004C622.021 153.074 620.693 154.656 618.974 155.75C617.255 156.844 615.25 157.391 612.959 157.391C610.719 157.391 608.733 156.844 607.002 155.75C605.27 154.643 603.922 153.074 602.959 151.043C602.008 148.999 601.52 146.635 601.494 143.953V141.902C601.494 139.168 601.969 136.753 602.92 134.656C603.87 132.56 605.211 130.958 606.943 129.852C608.688 128.732 610.68 128.172 612.92 128.172C615.198 128.172 617.203 128.725 618.935 129.832C620.68 130.926 622.021 132.521 622.959 134.617C623.896 136.701 624.365 139.129 624.365 141.902V143.699ZM620.634 141.863C620.634 138.491 619.957 135.906 618.603 134.109C617.249 132.299 615.354 131.395 612.92 131.395C610.55 131.395 608.681 132.299 607.314 134.109C605.96 135.906 605.263 138.406 605.224 141.609V143.699C605.224 146.967 605.908 149.539 607.275 151.414C608.655 153.276 610.55 154.207 612.959 154.207C615.38 154.207 617.255 153.328 618.584 151.57C619.912 149.799 620.595 147.267 620.634 143.973V141.863ZM652.473 144.441H640.54V157H636.79V128.562H654.407V131.648H640.54V141.375H652.473V144.441ZM681.383 144.441H669.449V157H665.699V128.562H683.316V131.648H669.449V141.375H681.383V144.441ZM710.683 143.855H698.359V153.934H712.675V157H694.609V128.562H712.48V131.648H698.359V140.789H710.683V143.855ZM740.217 143.855H727.893V153.934H742.209V157H724.143V128.562H742.014V131.648H727.893V140.789H740.217V143.855ZM778.778 144.324C775.562 143.4 773.218 142.267 771.747 140.926C770.289 139.572 769.559 137.905 769.559 135.926C769.559 133.686 770.451 131.837 772.235 130.379C774.032 128.908 776.363 128.172 779.227 128.172C781.18 128.172 782.919 128.549 784.442 129.305C785.979 130.06 787.164 131.102 787.997 132.43C788.843 133.758 789.266 135.21 789.266 136.785H785.497C785.497 135.066 784.95 133.719 783.856 132.742C782.763 131.753 781.22 131.258 779.227 131.258C777.378 131.258 775.933 131.668 774.891 132.488C773.863 133.296 773.348 134.422 773.348 135.867C773.348 137.026 773.837 138.009 774.813 138.816C775.803 139.611 777.476 140.34 779.833 141.004C782.203 141.668 784.052 142.404 785.38 143.211C786.721 144.005 787.71 144.936 788.348 146.004C788.999 147.072 789.325 148.328 789.325 149.773C789.325 152.078 788.427 153.927 786.63 155.32C784.833 156.701 782.43 157.391 779.423 157.391C777.47 157.391 775.647 157.02 773.954 156.277C772.261 155.522 770.953 154.493 770.028 153.191C769.117 151.889 768.661 150.411 768.661 148.758H772.43C772.43 150.477 773.062 151.837 774.325 152.84C775.601 153.829 777.3 154.324 779.423 154.324C781.402 154.324 782.919 153.921 783.973 153.113C785.028 152.306 785.555 151.206 785.555 149.812C785.555 148.419 785.067 147.345 784.091 146.59C783.114 145.822 781.343 145.066 778.778 144.324ZM808.176 143.777L804.699 147.391V157H800.949V128.562H804.699V142.625L817.336 128.562H821.867L810.676 141.121L822.746 157H818.254L808.176 143.777ZM836.851 157H833.101V128.562H836.851V157ZM854.295 153.934H867.772V157H850.526V128.562H854.295V153.934ZM882.619 153.934H896.095V157H878.849V128.562H882.619V153.934ZM915.552 144.324C912.335 143.4 909.992 142.267 908.52 140.926C907.062 139.572 906.333 137.905 906.333 135.926C906.333 133.686 907.225 131.837 909.009 130.379C910.805 128.908 913.136 128.172 916.001 128.172C917.954 128.172 919.692 128.549 921.216 129.305C922.752 130.06 923.937 131.102 924.77 132.43C925.617 133.758 926.04 135.21 926.04 136.785H922.27C922.27 135.066 921.723 133.719 920.63 132.742C919.536 131.753 917.993 131.258 916.001 131.258C914.152 131.258 912.707 131.668 911.665 132.488C910.636 133.296 910.122 134.422 910.122 135.867C910.122 137.026 910.61 138.009 911.587 138.816C912.576 139.611 914.249 140.34 916.606 141.004C918.976 141.668 920.825 142.404 922.153 143.211C923.494 144.005 924.484 144.936 925.122 146.004C925.773 147.072 926.098 148.328 926.098 149.773C926.098 152.078 925.2 153.927 923.403 155.32C921.606 156.701 919.204 157.391 916.196 157.391C914.243 157.391 912.42 157.02 910.727 156.277C909.035 155.522 907.726 154.493 906.802 153.191C905.89 151.889 905.434 150.411 905.434 148.758H909.204C909.204 150.477 909.835 151.837 911.098 152.84C912.374 153.829 914.074 154.324 916.196 154.324C918.175 154.324 919.692 153.921 920.747 153.113C921.802 152.306 922.329 151.206 922.329 149.812C922.329 148.419 921.841 147.345 920.864 146.59C919.888 145.822 918.117 145.066 915.552 144.324Z" fill="white" fill-opacity="0.6"/>
<path d="M159.725 78.1209C159.544 77.533 159.142 77.0381 158.604 76.741C151.742 72.9514 143.232 71.2377 133.806 71.7174C135.694 66.8093 136.835 61.7734 137.146 56.7957C137.863 45.3421 134.134 35.5483 126.647 29.2183C119.16 22.8886 108.883 20.8414 97.7081 23.4533C89.8283 25.2952 82.1605 29.3132 75.4305 35.0395C74.9948 34.3896 74.542 33.7495 74.0684 33.1275C73.421 32.277 72.7521 31.4268 72.0804 30.6003C67.8159 25.3508 63.0846 20.5956 58.0183 16.4671C57.0027 15.639 55.5076 15.7916 54.6799 16.8075C53.8519 17.8235 54.0044 19.3185 55.0204 20.1459C59.8358 24.0703 64.3363 28.5943 68.3974 33.5932C69.0375 34.3811 69.6754 35.1917 70.2924 36.0024C70.8572 36.7443 71.3932 37.511 71.8947 38.2947C71.5723 38.6149 71.2527 38.9402 70.936 39.2686C70.9192 39.286 70.9024 39.3038 70.8853 39.3212C65.4254 44.9817 60.9815 51.6645 58.0405 58.9662C57.9418 59.2102 57.8424 59.4538 57.7469 59.699C57.0913 59.5373 56.435 59.3959 55.7782 59.2744L49.937 52.0837C51.5051 49.587 55.9699 41.579 55.7158 31.6888C55.6823 30.3785 54.5834 29.3455 53.2827 29.3774C51.9724 29.411 50.9375 30.5004 50.9713 31.8106C51.1583 39.094 48.4106 45.1756 46.7508 48.1622L38.2916 37.7496C39.9882 34.8342 43.264 28.1128 43.0548 19.9634C43.0213 18.6531 41.9303 17.6182 40.6217 17.652C39.3114 17.6856 38.2764 18.775 38.3103 20.0852C38.4571 25.8033 36.5201 30.806 35.0466 33.7552L26.9437 23.7805C26.1172 22.7633 24.6225 22.6085 23.6059 23.435C22.5887 24.2615 22.434 25.7558 23.2604 26.7728L31.3693 36.7541C28.1922 37.5948 22.9139 38.4646 17.3154 37.1424C16.0391 36.8408 14.7617 37.6309 14.4605 38.9063C14.1593 40.1818 14.949 41.4601 16.2245 41.7613C18.6959 42.3451 21.1006 42.5694 23.3379 42.5694C28.2815 42.5694 32.4042 41.4746 34.6093 40.7425L43.0687 51.1548C39.8056 52.1682 33.2905 53.612 26.1989 51.9369C24.9225 51.6354 23.6455 52.4255 23.3443 53.7009C23.043 54.9763 23.8328 56.2546 25.1082 56.5555C27.8027 57.1918 30.4267 57.4367 32.8719 57.4367C39.1687 57.4364 44.2651 55.8132 46.255 55.0763L49.2248 58.7318C49.0738 58.7349 48.9232 58.7422 48.7726 58.7476C45.09 58.8795 41.4383 59.6766 38.0357 61.0934C33.1927 63.1096 28.925 66.342 25.412 70.6125C25.0623 70.1968 24.7156 69.7772 24.3748 69.3577C15.5825 58.535 9.57138 46.4868 6.99171 34.5162C4.62562 23.5369 5.44638 13.3932 9.29294 5.8143C20.2678 2.84513 34.1682 6.07248 47.6177 14.7528C48.7185 15.4634 50.1876 15.147 50.8982 14.0456C51.6089 12.9445 51.2925 11.4758 50.1911 10.7651C35.1782 1.07737 19.4249 -2.28319 6.96893 1.5466C6.38105 1.72727 5.88682 2.12942 5.5894 2.66731C-4.30116 20.5766 1.90895 49.2313 20.6905 72.3502C21.2984 73.0985 21.9242 73.844 22.5526 74.5743C21.0054 77.0293 19.6644 79.7358 18.5535 82.6711C14.2007 94.1715 13.8986 107.86 17.7027 121.217C21.5062 134.572 28.976 146.046 38.7352 153.526C46.0246 159.113 53.9544 162 61.7216 162C64.5759 162 67.408 161.61 70.1788 160.821C75.2581 159.374 79.8061 156.675 83.647 152.906C89.2762 156.823 95.6246 159.018 102.137 159.267C111.767 159.634 120.61 155.25 127.927 149.305C134.4 144.047 140.16 138.169 145.047 131.833C145.847 130.796 145.655 129.305 144.617 128.505C143.58 127.705 142.09 127.897 141.289 128.935C136.626 134.98 131.123 140.594 124.935 145.622C118.384 150.944 110.984 154.855 102.318 154.524C96.8978 154.317 91.5869 152.532 86.8234 149.335C88.987 146.558 90.8437 143.371 92.3494 139.819C96.5921 142.109 103.993 145.203 113.003 145.203C114.594 145.203 116.371 144.732 116.321 142.757C116.287 141.447 115.2 140.411 113.888 140.446C104.962 140.675 97.5445 137.285 94.0068 135.309C94.2621 134.497 94.4988 133.676 94.7158 132.846L104.487 124.907C106.957 126.48 115.404 131.311 125.986 131.311C127.538 131.311 129.247 130.767 129.184 128.867C129.15 127.557 128.054 126.525 126.75 126.555C118.457 126.769 111.58 123.54 108.398 121.73L120.207 112.136C123.209 113.903 130.27 117.421 138.922 117.421C140.465 117.421 142.096 116.831 142.047 114.977C142.013 113.667 140.925 112.632 139.613 112.666C133.085 112.834 127.402 110.545 124.19 108.9L135.408 99.7868C136.425 98.9604 136.58 97.466 135.754 96.449C134.927 95.4318 133.433 95.2771 132.416 96.1035L121.191 105.222C120.408 102.38 119.546 97.8267 120.092 92.7506C120.159 92.6819 120.227 92.6132 120.294 92.5446C124.862 87.8719 128.74 82.4813 131.647 76.6262C140.754 75.7902 148.939 77.1017 155.458 80.4411C158.664 92.1573 155.419 107.039 146.477 121.462C145.786 122.575 146.129 124.038 147.243 124.729C148.358 125.419 149.82 125.076 150.51 123.962C160.413 107.993 163.772 91.2834 159.725 78.1209ZM62.3949 60.8558C65.4669 53.219 70.511 46.0388 76.5237 40.427C76.5262 40.4248 76.5281 40.4216 76.5307 40.4194C90.4516 27.4306 108.606 23.3742 120.692 30.7601C120.222 31.0341 119.764 31.3091 119.315 31.5847C119.28 31.6059 119.244 31.6274 119.209 31.6486C111.109 36.6336 104.488 43.5189 100.177 52.0281C100.171 52.0398 100.165 52.0512 100.159 52.0625C95.3369 61.7025 92.3001 72.2189 85.5419 80.8059C85.5166 80.8382 85.491 80.8708 85.4657 80.903C81.9346 75.5346 77.6849 70.8808 72.8787 67.1972C69.4602 64.5771 65.9007 62.5514 62.2835 61.1384C62.3208 61.0441 62.3569 60.9498 62.3949 60.8558ZM67.1891 156.677C58.8258 158.462 49.8152 156.039 41.6224 149.759C32.6672 142.895 25.7932 132.297 22.2669 119.916C17.5015 103.185 19.9008 86.6426 27.4186 75.8304C27.4443 75.7975 27.4718 75.7665 27.4961 75.732C30.7036 71.1507 34.7688 67.7259 39.3877 65.6801C39.3829 65.7481 39.3807 65.8133 39.3763 65.8813C38.4008 80.6844 43.7933 94.7015 51.9332 106.829C60.5493 119.666 66.3544 134.151 67.0771 149.707C67.1843 152.029 67.2185 154.354 67.1891 156.677ZM81.5951 148.163C81.5492 148.214 81.5074 148.267 81.4666 148.321C78.7151 151.331 75.5093 153.649 71.945 155.171C71.945 153.214 71.8994 151.256 71.8026 149.302C71.3967 141.106 69.9447 133.06 67.084 125.354C66.6009 124.053 66.0823 122.764 65.5295 121.491C62.8954 115.419 59.5573 109.675 55.8737 104.184C51.2093 97.2315 46.7406 90.0212 45.0105 81.7118C43.8167 75.9762 43.7417 70.0598 44.2635 64.2414C44.2682 64.1888 44.2746 64.1341 44.2793 64.0816C44.3413 64.068 44.4033 64.0531 44.4654 64.0398C49.1526 63.0485 53.9819 63.426 58.5376 64.8663C76.1807 70.4439 87.311 89.0359 90.6551 106.283C93.7888 122.443 90.3168 138.49 81.5951 148.163ZM96.1008 125.606C96.8241 119.797 96.6937 113.711 95.7084 107.588C95.9049 107.533 96.1008 107.475 96.2966 107.417C97.1563 107.165 98.0081 106.888 98.8522 106.588C98.8579 113.596 100.695 119.149 101.491 121.227L96.1008 125.606ZM105.408 118.046C104.552 115.376 103.329 110.409 103.656 104.597C103.663 104.516 104.357 104.255 104.428 104.219C107.166 102.862 109.783 101.266 112.264 99.4821C113.266 98.7617 114.243 98.0064 115.197 97.2242C115.36 102.188 116.48 106.27 117.216 108.453L105.408 118.046ZM127.921 73.4118C123.383 83.1043 116.057 91.5871 107.013 97.3296C103.564 99.5191 99.8533 101.315 95.9593 102.558C95.8907 102.58 94.7965 102.929 94.7912 102.913C94.0792 99.8441 93.1654 96.8224 92.0488 93.8763C90.9091 90.8626 89.5774 87.9693 88.0697 85.2264C88.109 85.1796 88.1463 85.1331 88.1849 85.0862C96.2621 75.3678 99.4376 63.0485 105.47 52.1711C105.491 52.1328 105.513 52.0948 105.534 52.0568C109.911 44.1944 116.944 38.2596 124.724 33.9327C124.737 33.9255 124.75 33.9185 124.763 33.9112C133.987 42.8624 134.854 58.602 127.921 73.4118Z" fill="#C7A17A"/>
</svg>
