<svg width="401" height="401" viewBox="0 0 401 401" fill="none" xmlns="http://www.w3.org/2000/svg">
<path fill-rule="evenodd" clip-rule="evenodd" d="M272.043 85.6479L319.034 38.6559C323.53 34.1599 329.635 31.6239 336.003 31.6239C342.371 31.6239 348.475 34.1599 352.971 38.6559C356.019 41.6959 359.306 44.9839 362.346 48.0319C366.842 52.5279 369.379 58.6319 369.379 64.9999C369.379 71.3679 366.842 77.4719 362.346 81.9679L315.354 128.96C328.434 149.848 336.003 174.552 336.003 201C336.003 276.064 275.067 337 200.003 337C124.939 337 64.0025 276.064 64.0025 201C64.0025 125.936 124.939 64.9999 200.003 64.9999C226.451 64.9999 251.155 72.5679 272.043 85.6479ZM200.003 80.9999C266.235 80.9999 320.003 134.768 320.003 201C320.003 267.232 266.235 321 200.003 321C133.771 321 80.0025 267.232 80.0025 201C80.0025 134.768 133.771 80.9999 200.003 80.9999ZM305.939 115.752L351.034 70.6559C352.53 69.1599 353.379 67.1199 353.379 64.9999C353.379 62.8799 352.53 60.8399 351.034 59.3439C347.986 56.3039 344.699 53.0159 341.659 49.9679C340.163 48.4719 338.123 47.6239 336.003 47.6239C333.883 47.6239 331.842 48.4719 330.346 49.9679L285.25 95.0639C292.866 101.2 299.803 108.136 305.939 115.752Z" fill="#C7A17A"/>
<path fill-rule="evenodd" clip-rule="evenodd" d="M200.003 96.9999C142.603 96.9999 96.0025 143.6 96.0025 201C96.0025 258.4 142.603 305 200.003 305C257.403 305 304.003 258.4 304.003 201C304.003 143.6 257.403 96.9999 200.003 96.9999ZM152.003 209C156.419 209 160.003 212.584 160.003 217C160.003 221.416 156.419 225 152.003 225C147.587 225 144.003 221.416 144.003 217C144.003 212.584 147.587 209 152.003 209ZM128.003 185C132.419 185 136.003 188.584 136.003 193C136.003 197.416 132.419 201 128.003 201C123.587 201 120.003 197.416 120.003 193C120.003 188.584 123.587 185 128.003 185ZM160.003 177C164.419 177 168.003 180.584 168.003 185C168.003 189.416 164.419 193 160.003 193C155.587 193 152.003 189.416 152.003 185C152.003 180.584 155.587 177 160.003 177ZM184.003 153C188.419 153 192.003 156.584 192.003 161C192.003 165.416 188.419 169 184.003 169C179.587 169 176.003 165.416 176.003 161C176.003 156.584 179.587 153 184.003 153ZM152.003 145C156.419 145 160.003 148.584 160.003 153C160.003 157.416 156.419 161 152.003 161C147.587 161 144.003 157.416 144.003 153C144.003 148.584 147.587 145 152.003 145ZM216.003 145C220.419 145 224.003 148.584 224.003 153C224.003 157.416 220.419 161 216.003 161C211.587 161 208.003 157.416 208.003 153C208.003 148.584 211.587 145 216.003 145ZM192.003 121C196.419 121 200.003 124.584 200.003 129C200.003 133.416 196.419 137 192.003 137C187.587 137 184.003 133.416 184.003 129C184.003 124.584 187.587 121 192.003 121Z" fill="#C7A17A"/>
<path fill-rule="evenodd" clip-rule="evenodd" d="M363.576 116.656C376.632 141.936 384.014 170.608 384.014 200.987C384.014 302.534 301.56 384.987 200.014 384.987C98.4668 384.987 16.0133 302.534 16.0133 200.987C16.0133 99.4403 98.4668 16.9868 200.014 16.9868C230.392 16.9868 259.064 24.3682 284.344 37.4242C288.27 39.4509 293.091 37.9148 295.118 33.9895C297.144 30.0855 295.608 25.2429 291.683 23.2162C264.227 9.00816 233.038 0.986816 200.014 0.986816C89.6348 0.986816 0.0133057 90.6083 0.0133057 200.987C0.0133057 311.366 89.6348 400.987 200.014 400.987C310.392 400.987 400.014 311.366 400.014 200.987C400.014 167.963 391.992 136.774 377.784 109.318C375.758 105.392 370.915 103.856 367.011 105.883C363.086 107.91 361.55 112.731 363.576 116.656Z" fill="#C7A17A"/>
</svg>
