<svg class="item__decoration" xmlns="http://www.w3.org/2000/svg"
    xmlns:xlink="http://www.w3.org/1999/xlink" version="1.1" x="0px" y="0px" viewBox="0 0 512 512"
    enable-background="new 0 0 512 512" xml:space="preserve" style="max-width:100%" height="100%">
    <g fill="rgb(199, 161, 122)">
        <path
            d="M420.586,346.029c0,27.717-6,54.371-17.093,79.371c64.561-43.279,105.525-105.061,107.213-173.808l1.25-1.406V85.381   H299.279v213.306h115.338C418.523,314.029,420.586,329.842,420.586,346.029z"
            fill="rgb(199, 161, 122)"></path>
        <path
            d="M116.258,298.688c4.125,15.717,6.281,31.938,6.281,48.527c0,27.719-6.031,54.404-17.124,79.404   c65.402-43.842,106.588-106.621,107.275-176.432h0.031v-0.844c0-0.344,0-0.656,0-1c0-0.344,0-0.688,0-1.031V85.381H0.044v213.306   H116.258z"
            fill="rgb(199, 161, 122)"></path>
    </g>
</svg>