<svg width="320" height="448" viewBox="0 0 320 448" fill="none" xmlns="http://www.w3.org/2000/svg">
<path fill-rule="evenodd" clip-rule="evenodd" d="M88 80C83.584 80 80 76.416 80 72V40C80 29.392 84.216 19.216 91.712 11.712C99.216 4.216 109.392 0 120 0H248C252.416 0 256 3.584 256 8V24C256 38.856 250.104 53.096 239.6 63.6C237.24 65.952 234.696 68.08 232 69.96V104H240C253.256 104 264 114.744 264 128V128.008C264 138.616 259.784 148.792 252.288 156.296C246.696 161.88 239.624 165.648 232 167.2V190.312C232 198.208 229.664 205.928 225.28 212.496C220.616 219.496 213.752 229.8 208.16 238.184C207.744 238.808 207.32 239.408 206.872 240H248C287.768 240 320 272.232 320 312V424C320 430.368 317.472 436.472 312.968 440.968C308.472 445.472 302.368 448 296 448C243.456 448 76.544 448 24 448C17.632 448 11.528 445.472 7.032 440.968C2.528 436.472 0 430.368 0 424C0 399.584 0 351.672 0 312C0 272.232 32.232 240 72 240C84.672 240 98.584 240.008 113.136 240.008C112.688 239.416 112.256 238.808 111.848 238.184C106.256 229.8 99.384 219.496 94.72 212.504C90.336 205.928 88 198.208 88 190.312V167.2C80.376 165.648 73.304 161.88 67.712 156.296C60.216 148.792 56 138.616 56 128.008V128C56 114.744 66.744 104 80 104H88V80ZM48 261.392C29.08 270.376 16 289.664 16 312V424C16 426.12 16.84 428.16 18.344 429.656C19.84 431.16 21.88 432 24 432H48V261.392ZM272 261.392V432H296C298.12 432 300.16 431.16 301.656 429.656C303.16 428.16 304 426.12 304 424C304 399.584 304 351.672 304 312C304 289.664 290.92 270.376 272 261.392ZM224 383.944C228.416 383.944 232 387.528 232 391.944C232 396.36 228.416 399.944 224 399.944C219.584 399.944 216 396.36 216 391.944C216 387.528 219.584 383.944 224 383.944ZM96 383.944C100.416 383.944 104 387.528 104 391.944C104 396.36 100.416 399.944 96 399.944C91.584 399.944 88 396.36 88 391.944C88 387.528 91.584 383.944 96 383.944ZM88 256V344C88 348.416 91.584 352 96 352H224C228.416 352 232 348.416 232 344V256H200V303.992C200 307.024 198.288 309.792 195.576 311.144C192.872 312.504 189.624 312.208 187.2 310.392L160 290L132.8 310.392C130.376 312.208 127.128 312.504 124.424 311.144C121.712 309.792 120 307.024 120 303.992V256H88ZM136 256V287.992L155.2 273.6C158.048 271.464 161.952 271.464 164.8 273.6L184 287.992V256H136ZM216 77.664C210.856 79.2 205.472 80 200 80H104V156.688L122.344 175.032C125.472 178.16 130.536 178.16 133.656 175.032H133.664C138.16 170.536 144.256 168.008 150.616 168.008C156.112 168.008 163.88 168 169.376 168C175.736 168 181.84 170.528 186.344 175.024C186.344 175.032 186.352 175.04 186.352 175.04C189.472 178.16 194.528 178.16 197.648 175.04L216 156.688V77.664ZM88 120H80C75.584 120 72 123.584 72 128V128.008C72 134.376 74.528 140.48 79.032 144.976C81.584 147.536 84.656 149.456 88 150.632V120ZM232 120V150.632C235.344 149.456 238.416 147.536 240.968 144.976C245.472 140.48 248 134.376 248 128.008V128C248 123.584 244.416 120 240 120H232Z" fill="#C7A17A"/>
<path fill-rule="evenodd" clip-rule="evenodd" d="M168 328.008C168 330.13 167.157 332.165 165.657 333.665C164.157 335.165 162.122 336.008 160 336.008C157.878 336.008 155.843 335.165 154.343 333.665C152.843 332.165 152 330.13 152 328.008C152 325.886 152.843 323.851 154.343 322.351C155.843 320.851 157.878 320.008 160 320.008C162.122 320.008 164.157 320.851 165.657 322.351C167.157 323.851 168 325.886 168 328.008Z" fill="#C7A17A"/>
</svg>
