<svg width="50" xmlns="http://www.w3.org/2000/svg" xmlns:xlink="http://www.w3.org/1999/xlink" version="1.1" x="0px" y="0px" viewBox="0 0 100 100" style="enable-background:new 0 0 100 100;max-width:100%" xml:space="preserve" height="100%">
                        <g fill="rgb(199, 161, 122)">
                            <path
                                d="M50,5C25.1,5,5,25.1,5,50c0,24.9,20.1,45,45,45s45-20.1,45-45C95,25.1,74.9,5,50,5z M68.2,68.5c-0.9,0.9-2,1.3-3.2,1.3   s-2.3-0.4-3.2-1.3L45.2,51.9v-27c0-2.5,2-4.5,4.5-4.5s4.5,2,4.5,4.5v23.3l14,14C69.9,63.9,69.9,66.8,68.2,68.5z"
                                fill="rgb(199, 161, 122)"></path>
                        </g>
                    </svg>