<svg xmlns="http://www.w3.org/2000/svg" xmlns:xlink="http://www.w3.org/1999/xlink" version="1.1" x="0px" y="0px" viewBox="0 0 100 100" enable-background="new 0 0 100 100" xml:space="preserve" style="max-width:100%" height="100%"><g style="" fill="rgb(199, 161, 122)"><path d="M50,56.665c-12.972,0-23.524-10.553-23.524-23.525C26.476,20.169,37.028,9.616,50,9.616   c12.971,0,23.524,10.553,23.524,23.524C73.524,46.112,62.971,56.665,50,56.665z M50,15.981c-9.462,0-17.159,7.697-17.159,17.158   c0,9.461,7.697,17.16,17.159,17.16c9.461,0,17.158-7.698,17.158-17.16C67.158,23.679,59.461,15.981,50,15.981z" style="" fill="rgb(199, 161, 122)"></path><path d="M11.611,90.385c-0.261,0-0.526-0.031-0.792-0.101c-1.703-0.436-2.731-2.169-2.295-3.872   c1.663-6.505,4.513-12.901,8.969-20.128c1.691-2.743,4.498-4.526,7.699-4.89c8.291-0.947,16.638-1.426,24.807-1.426   c8.169,0,16.516,0.479,24.809,1.426c3.204,0.363,6.01,2.148,7.701,4.893c4.451,7.224,7.303,13.62,8.966,20.123   c0.435,1.705-0.593,3.438-2.296,3.874c-1.703,0.433-3.438-0.593-3.871-2.295c-1.501-5.864-4.113-11.698-8.22-18.363   c-0.659-1.07-1.753-1.765-3.002-1.907C66.033,66.8,57.928,66.335,50,66.335c-7.929,0-16.033,0.465-24.086,1.384   c-1.248,0.143-2.341,0.837-3.001,1.907c-4.109,6.665-6.719,12.499-8.219,18.363C14.326,89.427,13.031,90.385,11.611,90.385z" style="" fill="rgb(199, 161, 122)"></path></g></svg>