<svg width="2100" height="183" viewBox="0 0 2100 183" fill="none" xmlns="http://www.w3.org/2000/svg">
<rect width="2100" height="80" fill="#27292B"/>
<path d="M2079.27 105.96C2078.16 117.023 2051.45 113.901 2045.16 113.764C2029.23 110.55 2011.33 116.839 1995.86 111.882C1984.43 107.888 1974.38 102.931 1962.44 103.39C1952.48 112.754 1941.74 101.554 1932.15 104.904C1925.54 106.695 1919.25 114.682 1912.5 111.285C1910.21 111.836 1909.47 111.56 1907.45 112.708C1906.12 112.341 1905.48 111.377 1903.78 116.288C1899.33 112.065 1888.77 116.564 1884.18 116.472C1877.66 118.079 1872.57 116.701 1866.83 112.524C1861.14 109.082 1858.61 102.196 1851.45 108.577C1846.72 103.803 1828.59 104.354 1823.91 109.587C1821.29 116.747 1822.81 114.406 1821.61 116.656C1820.14 118.813 1816.98 123.082 1813.67 122.761C1804.54 128.866 1788.79 129.83 1778.56 124.229C1764.88 129.049 1748.4 132.676 1735.04 125.01C1730.45 125.239 1730.22 122.439 1725.4 114.819C1721.77 106.144 1717.41 115.416 1713.51 113.855C1706.9 114.682 1695.15 113.534 1689.27 112.8C1683.44 107.383 1683.12 108.852 1676.05 105.96C1661.09 103.298 1645.9 106.832 1631.67 103.986C1622.3 101.324 1610.92 106.19 1601.23 103.39C1589.02 87.9204 1571.07 111.836 1561.8 98.1567C1558.45 93.75 1556.57 86.2679 1551.8 90.6746C1549.04 91.7303 1546.29 87.6909 1543.49 86.3597C1532.93 85.1662 1527.01 95.2648 1516.95 90.491C1512.14 99.5338 1507.22 92.7861 1502.45 90.3533C1496.02 88.3335 1487.35 89.7565 1481.2 89.8942C1476.42 84.799 1473.71 87.5532 1468.34 83.0547C1464.12 80.4383 1459.9 85.3039 1455.63 82.5039C1443.51 81.6317 1430.93 92.3271 1418.63 85.258C1408.58 80.4383 1397.79 76.6742 1387.28 77.6382C1388.75 91.0418 1349.87 75.4807 1341.65 85.1662C1329.03 91.7762 1316.73 79.2448 1304.33 79.2907C1293.73 67.0346 1283.54 82.0448 1272.66 77.3169C1264.86 74.9758 1259.71 75.0676 1252.74 79.9333C1248.79 83.7432 1250.95 82.917 1246.49 82.5957C1245.26 94.7599 1242.91 84.0646 1241.49 82.5498C1234.74 88.3794 1226.94 79.5202 1220.38 82.7334C1215.56 78.9235 1211.79 81.6776 1207.71 75.9857C1200.27 78.0972 1192.65 71.0282 1183.93 69.5134C1171.58 69.7888 1159.32 72.8643 1147.67 67.4019C1137.93 62.628 1127.19 71.5331 1117.74 72.0839C1112.55 77.0414 1111.36 74.2414 1107 75.8021C1104.56 75.0217 1102.63 82.7334 1099.88 77.4546C1093.32 74.7004 1086.61 73.5528 1080 77.3169C1073.67 85.1662 1066.92 73.7823 1060.63 77.0414C1053.38 63.4083 1047.41 81.8153 1040.34 82.6416C1027.4 79.7497 1013.4 77.6841 1000.36 82.5039C995.084 80.8973 988.704 83.1006 983.608 83.0547C978.1 83.1924 977.458 88.6548 973.234 91.9139C964.513 99.8551 949.089 85.9925 939.266 92.832C934.309 89.4811 931.555 99.7633 926.138 95.4944C916.912 98.7076 917.784 96.8255 910.898 102.288C903.278 111.101 887.993 104.124 880.189 101.416C874.038 93.0615 871.146 97.5141 868.346 94.9894C865.454 93.8878 865.225 88.8843 859.808 83.6514C855.264 82.6875 851.546 72.038 845.395 74.6545C838.417 69.697 833.873 77.2251 828.64 77.1332C820.286 86.5892 807.617 78.6021 798.757 77.3628C786.593 74.7463 774.429 79.0153 762.264 77.3628C753.635 82.9629 745.005 77.73 736.421 77.3628C731.601 78.0513 722.742 74.884 722.88 82.1367C714.066 85.9925 703.83 83.9269 694.833 82.9629C694.144 88.4253 695.613 93.7041 694.512 95.1271C686.066 90.9959 678.078 104.17 669.311 100.911C663.16 102.242 656.963 93.8878 650.812 100.773C636.766 102.977 622.674 96.6419 608.627 100.773C603.073 101.645 599.493 101.921 594.719 103.619C587.466 106.603 582.922 114.544 574.43 108.623C566.672 110.505 559.006 105.96 551.478 107.291C542.343 107.2 545.373 111.147 538.947 111.423C534.356 117.665 525.038 108.255 520.08 111.239C511.542 102.104 502.867 116.747 494.329 111.285C486.984 108.439 486.48 109.036 480.925 103.527C475.325 107.291 467.384 100.819 460.636 98.2026C453.246 93.1074 447.324 99.9469 439.934 95.0353C434.976 96.596 433.048 88.1499 428.183 94.714C424.694 94.1632 423.317 96.7337 420.333 101.691C417.074 111.882 415.927 106.557 411.75 103.436C406.884 105.777 401.972 100.911 397.106 103.39C391.598 98.0649 386.09 110.78 380.627 103.39C375.348 107.245 367.04 102.977 362.266 103.114C357.722 100.727 354.784 102.196 349.964 109.265C344.272 112.341 341.747 117.849 335.642 109.311C323.57 103.344 316.225 100.268 301.904 95.5403C292.218 98.6616 282.533 91.1795 272.847 95.5403C264.447 97.8813 257.975 86.1302 249.896 92.8779C243.148 92.0976 236.354 94.4386 229.607 92.9238C223.18 94.0714 216.662 98.6617 210.236 92.9697C205.921 93.1074 198.943 95.8157 195.271 90.491C184.989 79.9792 178.379 78.8775 166.765 77.271C160.982 76.6283 155.106 71.4872 149.46 76.6742C144.87 81.7694 140.234 74.6086 135.551 71.9003C124.351 67.9986 110.902 70.3396 104.2 79.7956C95.6618 91.3172 84.0483 90.7205 70.2315 90.2614C63.6674 85.763 58.3886 93.0615 52.0999 92.9238C50.5851 88.0581 48.0604 90.491 46.7292 92.6484C44.2045 93.0615 44.6636 93.5664 42.7357 96.4124C32.4993 104.032 21.9875 105.455 13.0364 92.832C13.0364 93.1074 9.77733 109.724 6.51822 120.144C3.25911 132.997 0 146.263 0 147.456C7.8035 142.407 15.5611 132.492 23.8236 131.528C28.4598 133.502 38.9257 126.892 43.516 131.666C50.8146 133.089 55.4049 141.168 62.1526 135.522C69.2217 139.286 76.3825 141.81 83.268 135.2C90.7501 132.125 95.8454 114.865 104.016 123.908C116.043 123.679 123.525 122.347 133.073 113.993C142.942 105.501 158.273 114.314 169.428 119.777C179.664 121.108 190.451 127.856 201.193 121.016C211.888 123.77 222.492 122.852 232.315 125.01C243.745 135.154 254.899 139.791 267.89 136.486C279.778 134.144 290.244 128.912 302.455 137.082C308.101 129.462 312.37 136.715 318.016 139.469C330.409 141.673 341.702 143.968 353.545 147.64C363.001 150.532 368.279 163.935 377.276 162.696C383.978 175.365 391.598 157.188 398.438 162.834C405.507 159.207 410.877 164.257 418.268 168.572C424.511 161.732 431.304 171.188 437.639 168.296C449.895 169.214 468.027 172.06 478.86 165.175C482.302 168.663 484.368 168.158 488.362 158.289C493.227 158.335 499.516 164.44 504.565 157.968C510.9 157.968 513.425 148.65 519.438 152.597C522.33 147.869 524.992 152.184 527.884 152.23C529.169 152.047 531.74 156.27 533.805 146.768C538.901 146.446 545.878 151.404 551.294 142.958C555.839 139.653 559.924 133.364 564.652 140.433C570.252 146.079 571.767 153.883 578.515 150.073C582.692 148.971 585.263 146.676 588.246 142.086C594.902 131.803 604.68 141.076 612.621 139.699C628.503 136.118 644.477 131.344 660.36 139.699C664.399 138.138 667.521 140.066 671.422 138.689C677.252 131.849 676.931 135.476 683.403 131.574C694.328 132.217 705.804 140.525 716.912 134.558C723.063 125.148 728.205 133.777 734.493 131.803C738.257 135.613 743.031 135.2 746.474 130.977C750.789 126.662 748.907 123.679 751.294 119.18C755.425 114.36 770.022 113.259 777.596 116.242C784.39 125.928 791.183 121.797 797.977 116.196C807.892 112.157 815.236 114.774 823.499 121.934C828.411 136.486 830.706 125.79 835.939 129.325C840.804 126.433 844.018 136.853 848.378 135.154C855.907 141.397 865.5 134.787 875.507 143.004C885.514 145.574 895.888 149.201 904.931 142.269C916.223 144.473 927.699 140.617 938.532 139.653C943.994 132.217 943.719 134.282 949.686 137.174C955.47 135.889 957.949 135.017 962.723 132.262C970.71 141.351 980.854 138.735 989.255 131.803C997.333 134.879 1005.5 132.171 1013.58 131.666C1024.42 127.994 1036.21 135.613 1047.92 136.761C1059.62 130.748 1071.33 127.81 1081.93 131.849C1085.24 126.249 1087.49 129.646 1090.38 124.551C1091.02 129.049 1095.66 120.098 1095.98 119.226C1102.59 113.534 1108.97 121.384 1115.07 121.154C1123.34 123.725 1130.08 116.197 1137.48 126.616C1142.98 129.049 1148.4 132.584 1155.29 139.148C1162.86 140.158 1169.38 139.148 1176.17 136.256C1183.06 135.659 1186.5 135.889 1192.05 141.305C1195.31 147.915 1195.31 150.348 1200.04 144.059C1204.91 148.374 1209.86 129.508 1214.68 134.19C1221.29 130.105 1229.28 133.915 1236.49 132.4C1246.27 134.833 1256.36 145.574 1266.55 134.879C1276.74 132.217 1286.98 138.092 1296.94 134.466C1300.98 141.856 1309.61 127.81 1312.96 134.19C1316.31 131.161 1316.13 131.115 1319.62 123.725C1323.11 111.469 1330.18 111.652 1334.54 121.246C1340.55 121.384 1344.31 121.292 1350.69 124.046C1358.18 134.053 1365.89 124.597 1373.32 124.321C1380.99 125.102 1385.72 123.725 1392.88 119.272C1403.48 114.544 1409.59 121.751 1417.62 127.443C1422.39 134.466 1423.08 130.702 1428.59 133.043C1432.22 138.918 1435.25 133.318 1439.01 139.194C1445.39 136.761 1453.7 146.217 1460.4 139.653C1467.01 142.086 1471.01 137.817 1476.88 136.807C1481.06 138.23 1483.31 131.115 1486.52 140.25C1491.75 149.568 1491.8 133.456 1498.09 144.978C1505.98 136.302 1514.29 144.978 1522.23 144.886C1526.23 149.843 1530.82 142.958 1534.77 144.978C1541.05 145.896 1538.12 143.325 1543.03 140.25C1548.95 133.685 1554.69 127.718 1562.31 137.082C1567.95 131.39 1573.6 134.925 1579.25 137.082C1583.65 138.368 1588.29 136.486 1592.6 137.541C1596.69 134.144 1600.64 140.754 1605 143.096C1609.31 149.522 1613.95 141.902 1618.26 145.85C1625.97 143.233 1631.71 154.25 1639.42 157.417C1647.09 169.26 1655.54 157.876 1663.39 158.289C1669.58 163.66 1674.08 157.004 1680.37 165.221C1684.23 152.597 1688.04 168.021 1691.71 166.919C1694.09 166.322 1696.66 177.614 1699.37 171.188C1701.71 174.998 1704.51 164.027 1706.95 170.775C1714.52 169.811 1716.95 170.545 1722.69 178.808C1734.86 186.198 1759.78 183.063 1774.84 173.561C1782.64 175.305 1790.49 172.918 1798.29 173.561C1808.99 178.197 1819.64 172 1830.33 173.469C1841.03 177.554 1851.68 173.561 1862.37 173.515C1868.71 171.633 1873.02 168.787 1878.76 170.852C1883.12 168.787 1888.08 175.075 1892.49 171.082C1900.61 173.744 1901.21 188.907 1908 176.605C1910.99 172.198 1911.77 166.781 1914.38 170.454C1916.04 173.345 1917.69 170.637 1919.29 165.634C1922.05 159.07 1923.29 155.076 1922.92 157.601C1931.6 148.971 1955.65 156.912 1969.01 152.047C1978.65 150.394 1988.19 147.227 1998.61 150.21C2004.4 154.204 2007.38 146.538 2012.66 145.253C2020.19 143.692 2029.42 148.879 2037.08 144.794C2047.64 142.637 2058.06 150.532 2068.48 146.079C2078.9 145.712 2089.32 143.463 2099.92 147.364C2100.11 145.345 2079.27 107.796 2079.27 105.96Z" fill="#27292B"/>
<path d="M0 66H2100V146.5L1781.22 132L1363.74 100.26L545.899 119.405H343.453L151.079 100.26L0 128.473V66Z" fill="#27292B"/>
</svg>
