<svg width="304" height="448" viewBox="0 0 304 448" fill="none" xmlns="http://www.w3.org/2000/svg">
<path fill-rule="evenodd" clip-rule="evenodd" d="M296 416C298.12 416 300.16 416.84 301.656 418.344C303.16 419.84 304 421.88 304 424V440C304 444.416 300.416 448 296 448H7.992C3.576 448 0 444.416 0 440V424C0 421.88 0.840002 419.84 2.344 418.344C3.84 416.84 5.88 416 8 416H296ZM31.992 399.992V286.632C22.672 283.344 16 274.448 16 264C16 253.552 22.68 244.656 32 241.368L31.992 124.624C27.456 122.648 23.28 119.856 19.712 116.296C12.216 108.792 7.992 98.616 7.992 88.008V24C7.992 17.632 10.52 11.52 15.024 7.016C19.52 2.528 25.624 0 31.992 0H271.992C278.36 0 284.472 2.52 288.968 7.016C293.472 11.52 295.992 17.632 295.992 24V88.008C295.992 98.616 291.784 108.792 284.288 116.296C280.72 119.856 276.528 122.648 271.992 124.624L271.984 241.36C281.32 244.648 288 253.544 288 264C288 274.456 281.32 283.344 272 286.64V399.992H31.992ZM232 272L264 272.008C268.416 272.008 271.992 268.416 271.992 264C271.992 259.584 268.416 256 264 256H232V232.008C232 227.592 228.416 224.008 224 224.008H80C77.872 224.008 75.84 224.848 74.336 226.352C72.84 227.848 72 229.888 72 232.008V256H40C35.584 256 31.992 259.584 31.992 264C31.992 268.416 35.584 272.008 40 272.008L72 272V360C72 373.256 82.744 384 96 384H208C221.256 384 232 373.256 232 360V272ZM127.992 160.008H175.992V168.008C175.992 172.424 172.416 176 168 176H136C131.584 176 127.992 172.424 127.992 168.008V160.008ZM83.32 128H220.68L207.024 141.664C205.52 143.168 203.496 144.008 201.368 144.008H102.632C100.504 144.008 98.464 143.168 96.96 141.664L83.32 128ZM31.992 15.992H271.992C274.112 15.992 276.16 16.832 277.656 18.336C279.16 19.832 280 21.88 280 24V88.008C280 94.376 277.472 100.48 272.968 104.976C268.472 109.48 262.368 112.008 256 112.008H48C41.632 112.008 35.528 109.48 31.032 104.976C26.528 100.48 24 94.376 24 88.008V24C24 21.88 24.84 19.832 26.344 18.336C27.84 16.84 29.872 15.992 31.992 15.992Z" fill="#C7A17A"/>
<path fill-rule="evenodd" clip-rule="evenodd" d="M248 40.008C248 44.424 244.416 48.008 240 48.008C235.584 48.008 232 44.424 232 40.008C232 35.592 235.584 32.008 240 32.008C244.416 32.008 248 35.592 248 40.008Z" fill="#C7A17A"/>
<path fill-rule="evenodd" clip-rule="evenodd" d="M248 80.008C248 84.424 244.416 88.008 240 88.008C235.584 88.008 232 84.424 232 80.008C232 75.592 235.584 72.008 240 72.008C244.416 72.008 248 75.592 248 80.008Z" fill="#C7A17A"/>
<path fill-rule="evenodd" clip-rule="evenodd" d="M88 40C88 35.584 84.416 32 80 32H64C59.584 32 56 35.584 56 40V88C56 92.416 59.584 96 64 96H80C84.416 96 88 92.416 88 88V40Z" fill="#C7A17A"/>
<path fill-rule="evenodd" clip-rule="evenodd" d="M136 40C136 35.584 132.416 32 128 32H112C107.584 32 104 35.584 104 40V88C104 92.416 107.584 96 112 96H128C132.416 96 136 92.416 136 88V40Z" fill="#C7A17A"/>
<path fill-rule="evenodd" clip-rule="evenodd" d="M184.008 40.008C184.008 35.592 180.424 32.008 176.008 32.008H160C155.584 32.008 152 35.592 152 40.008V88.008C152 92.424 155.584 96.008 160 96.008H176.008C180.424 96.008 184.008 92.424 184.008 88.008V40.008Z" fill="#C7A17A"/>
</svg>
