<svg width="2100" height="117" viewBox="0 0 2100 117" fill="none" xmlns="http://www.w3.org/2000/svg">
<path d="M2079.27 76.9412C2078.16 65.8786 2051.45 69 2045.16 69.1377C2029.23 72.3509 2011.33 66.0622 1995.86 71.0197C1984.43 75.0133 1974.38 79.9708 1962.44 79.5117C1952.48 70.1476 1941.74 81.3478 1932.15 77.9969C1925.54 76.2067 1919.25 68.2197 1912.5 71.6165C1910.21 71.0656 1909.47 71.341 1907.45 70.1935C1906.12 70.5607 1905.48 71.5247 1903.78 66.6131C1899.33 70.8361 1888.77 66.3376 1884.18 66.4294C1877.66 64.8228 1872.57 66.1999 1866.83 70.3771C1861.14 73.8198 1858.61 80.7052 1851.45 74.3247C1846.72 79.0986 1828.59 78.5478 1823.91 73.3149C1821.29 66.154 1822.81 68.4951 1821.61 66.2458C1820.14 64.0884 1816.98 59.8195 1813.67 60.1408C1804.54 54.0357 1788.79 53.0717 1778.56 58.6719C1764.88 53.8521 1748.4 50.2258 1735.04 57.8915C1730.45 57.662 1730.22 60.4621 1725.4 68.0819C1721.77 76.7576 1717.41 67.4852 1713.51 69.0459C1706.9 68.2197 1695.15 69.3672 1689.27 70.1017C1683.44 75.5182 1683.12 74.0493 1676.05 76.9412C1661.09 79.6035 1645.9 76.069 1631.67 78.915C1622.3 81.5774 1610.92 76.7117 1601.23 79.5117C1589.02 94.981 1571.07 71.0656 1561.8 84.7447C1558.45 89.1513 1556.57 96.6335 1551.8 92.2268C1549.04 91.171 1546.29 95.2105 1543.49 96.5417C1532.93 97.7351 1527.01 87.6365 1516.95 92.4104C1512.14 83.3676 1507.22 90.1153 1502.45 92.5481C1496.02 94.5678 1487.35 93.1449 1481.2 93.0072C1476.42 98.1024 1473.71 95.3482 1468.34 99.8467C1464.12 102.463 1459.9 97.5974 1455.63 100.398C1443.51 101.27 1430.93 90.5743 1418.63 97.6433C1408.58 102.463 1397.79 106.227 1387.28 105.263C1388.75 91.8596 1349.87 107.421 1341.65 97.7351C1329.03 91.1251 1316.73 103.657 1304.33 103.611C1293.73 115.867 1283.54 100.857 1272.66 105.585C1264.86 107.926 1259.71 107.834 1252.74 102.968C1248.79 99.1581 1250.95 99.9844 1246.49 100.306C1245.26 88.1415 1242.91 98.8368 1241.49 100.352C1234.74 94.5219 1226.94 103.381 1220.38 100.168C1215.56 103.978 1211.79 101.224 1207.71 106.916C1200.27 104.804 1192.65 111.873 1183.93 113.388C1171.58 113.113 1159.32 110.037 1147.67 115.5C1137.93 120.273 1127.19 111.368 1117.74 110.817C1112.55 105.86 1111.36 108.66 1107 107.099C1104.56 107.88 1102.63 100.168 1099.88 105.447C1093.32 108.201 1086.61 109.349 1080 105.585C1073.67 97.7351 1066.92 109.119 1060.63 105.86C1053.38 119.493 1047.41 101.086 1040.34 100.26C1027.4 103.152 1013.4 105.217 1000.36 100.398C995.084 102.004 988.704 99.8008 983.608 99.8467C978.1 99.709 977.458 94.2465 973.234 90.9874C964.513 83.0462 949.089 96.9089 939.266 90.0694C934.309 93.4203 931.555 83.1381 926.138 87.407C916.912 84.1938 917.784 86.0758 910.898 80.6134C903.278 71.8001 887.993 78.7773 880.189 81.4855C874.038 89.8399 871.146 85.3873 868.346 87.9119C865.454 89.0136 865.225 94.017 859.808 99.2499C855.264 100.214 851.546 110.863 845.395 108.247C838.417 113.204 833.873 105.676 828.64 105.768C820.286 96.3121 807.617 104.299 798.757 105.539C786.593 108.155 774.429 103.886 762.264 105.539C753.635 99.9385 745.005 105.171 736.421 105.539C731.601 104.85 722.742 108.017 722.88 100.765C714.066 96.9089 703.83 98.9745 694.833 99.9385C694.144 94.476 695.613 89.1972 694.512 87.7742C686.066 91.9055 678.078 78.7314 669.311 81.9905C663.16 80.6593 656.963 89.0136 650.812 82.1282C636.766 79.9249 622.674 86.2594 608.627 82.1282C603.073 81.256 599.493 80.9806 594.719 79.2822C587.466 76.2985 582.922 68.3574 574.43 74.2788C566.672 72.3968 559.006 76.9412 551.478 75.61C542.343 75.7018 545.373 71.7542 538.947 71.4787C534.356 65.236 525.038 74.646 520.08 71.6624C511.542 80.797 502.867 66.154 494.329 71.6165C486.984 74.4624 486.48 73.8657 480.925 79.374C475.325 75.61 467.384 82.0823 460.636 84.6987C453.246 89.794 447.324 82.9544 439.934 87.866C434.976 86.3053 433.048 94.7515 428.183 88.1874C424.694 88.7382 423.317 86.1676 420.333 81.2101C417.074 71.0197 415.927 76.3444 411.75 79.4658C406.884 77.1248 401.972 81.9905 397.106 79.5117C391.598 84.8364 386.09 72.1214 380.627 79.5117C375.348 75.6559 367.04 79.9249 362.266 79.7872C357.722 82.1741 354.784 80.7052 349.964 73.6362C344.272 70.5607 341.747 65.0524 335.642 73.5903C323.57 79.5576 316.225 82.6331 301.904 87.3611C292.218 84.2397 282.533 91.7219 272.847 87.3611C264.447 85.0201 257.975 96.7712 249.896 90.0235C243.148 90.8038 236.354 88.4628 229.607 89.9776C223.18 88.83 216.662 84.2397 210.236 89.9317C205.921 89.794 198.943 87.0857 195.271 92.4104C184.989 102.922 178.379 104.024 166.765 105.63C160.982 106.273 155.106 111.414 149.46 106.227C144.87 101.132 140.234 108.293 135.551 111.001C124.351 114.903 110.902 112.562 104.2 103.106C95.6618 91.5842 84.0483 92.1809 70.2315 92.6399C63.6674 97.1384 58.3886 89.8399 52.0999 89.9776C50.5851 94.8433 48.0604 92.4104 46.7292 90.253C44.2045 89.8399 44.6636 89.3349 42.7357 86.489C32.4993 78.8691 21.9875 77.4461 13.0364 90.0694C13.0364 89.794 9.77733 73.1772 6.51822 62.7572C3.25911 49.9044 0 36.6385 0 35.4451C7.8035 40.4944 15.5611 50.4094 23.8236 51.3733C28.4598 49.3995 38.9257 56.0095 43.516 51.2356C50.8146 49.8126 55.4049 41.7338 62.1526 47.3798C69.2217 43.6158 76.3825 41.0911 83.268 47.7011C90.7501 50.7766 95.8454 68.036 104.016 58.9932C116.043 59.2227 123.525 60.5539 133.073 68.9082C142.942 77.4002 158.273 68.5869 169.428 63.1244C179.664 61.7933 190.451 55.0455 201.193 61.8851C211.888 59.1309 222.492 60.049 232.315 57.8915C243.745 47.747 254.899 43.1108 267.89 46.4158C279.778 48.7569 290.244 53.9898 302.455 45.8191C308.101 53.439 312.37 46.1863 318.016 43.4322C330.409 41.2288 341.702 38.9337 353.545 35.2615C363.001 32.3696 368.279 18.966 377.276 20.2053C383.978 7.53617 391.598 25.7137 398.438 20.0676C405.507 23.694 410.877 18.6446 418.268 14.3298C424.511 21.1693 431.304 11.7134 437.639 14.6052C449.895 13.6872 468.027 10.8412 478.86 17.7266C482.302 14.238 484.368 14.7429 488.362 24.612C493.227 24.5661 499.516 18.4611 504.565 24.9333C510.9 24.9333 513.425 34.2516 519.438 30.304C522.33 35.032 524.992 30.7171 527.884 30.6712C529.169 30.8548 531.74 26.6317 533.805 36.1336C538.901 36.4549 545.878 31.4974 551.294 39.9435C555.839 43.2485 559.924 49.5372 564.652 42.4682C570.252 36.8222 571.767 29.0187 578.515 32.8286C582.692 33.9303 585.263 36.2254 588.246 40.8157C594.902 51.0979 604.68 41.8256 612.621 43.2026C628.503 46.7831 644.477 51.5569 660.36 43.2026C664.399 44.7633 667.521 42.8354 671.422 44.2125C677.252 51.052 676.931 47.4257 683.403 51.3274C694.328 50.6848 705.804 42.3764 716.912 48.3438C723.063 57.7538 728.205 49.1241 734.493 51.0979C738.257 47.288 743.031 47.7011 746.474 51.9242C750.789 56.239 748.907 59.2227 751.294 63.7212C755.425 68.541 770.022 69.6426 777.596 66.659C784.39 56.9735 791.183 61.1047 797.977 66.7049C807.892 70.7443 815.236 68.1279 823.499 60.967C828.411 46.4158 830.706 57.1112 835.939 53.5767C840.804 56.4685 844.018 46.0486 848.378 47.747C855.907 41.5042 865.5 48.1142 875.507 39.8976C885.514 37.3271 895.888 33.7008 904.931 40.6321C916.223 38.4288 927.699 42.2846 938.532 43.2486C943.994 50.6848 943.719 48.6192 949.686 45.7273C955.47 47.0126 957.949 47.8847 962.723 50.6389C970.71 41.5502 980.854 44.1666 989.255 51.0979C997.333 48.0224 1005.5 50.7307 1013.58 51.2356C1024.42 54.9078 1036.21 47.288 1047.92 46.1404C1059.62 52.1537 1071.33 55.0915 1081.93 51.052C1085.24 56.6522 1087.49 53.2554 1090.38 58.3506C1091.02 53.8521 1095.66 62.8031 1095.98 63.6753C1102.59 69.3672 1108.97 61.5178 1115.07 61.7474C1123.34 59.1768 1130.08 66.7049 1137.48 56.2849C1142.98 53.8521 1148.4 50.3176 1155.29 43.7535C1162.86 42.7436 1169.38 43.7535 1176.17 46.6453C1183.06 47.2421 1186.5 47.0126 1192.05 41.596C1195.31 34.986 1195.31 32.5532 1200.04 38.8419C1204.91 34.527 1209.86 53.3931 1214.68 48.711C1221.29 52.7963 1229.28 48.9864 1236.49 50.5012C1246.27 48.0683 1256.36 37.3271 1266.55 48.0224C1276.74 50.6848 1286.98 44.8092 1296.94 48.4355C1300.98 41.0452 1309.61 55.0915 1312.96 48.711C1316.31 51.7406 1316.13 51.7865 1319.62 59.1768C1323.11 71.4328 1330.18 71.2492 1334.54 61.6556C1340.55 61.5178 1344.31 61.6096 1350.69 58.8555C1358.18 48.8487 1365.89 58.3047 1373.32 58.5801C1380.99 57.7997 1385.72 59.1768 1392.88 63.6294C1403.48 68.3574 1409.59 61.1506 1417.62 55.4587C1422.39 48.4356 1423.08 52.1996 1428.59 49.8585C1432.22 43.983 1435.25 49.5831 1439.01 43.7076C1445.39 46.1404 1453.7 36.6845 1460.4 43.2486C1467.01 40.8157 1471.01 45.0847 1476.88 46.0945C1481.06 44.6715 1483.31 51.7865 1486.52 42.6518C1491.75 33.3336 1491.8 49.4454 1498.09 37.9238C1505.98 46.5994 1514.29 37.9238 1522.23 38.0156C1526.23 33.0581 1530.82 39.9435 1534.77 37.9238C1541.05 37.0058 1538.12 39.5763 1543.03 42.6518C1548.95 49.2159 1554.69 55.1833 1562.31 45.8191C1567.95 51.511 1573.6 47.9765 1579.25 45.8191C1583.65 44.5338 1588.29 46.4158 1592.6 45.3601C1596.69 48.7569 1600.64 42.1469 1605 39.8058C1609.31 33.3795 1613.95 40.9993 1618.26 37.0517C1625.97 39.6681 1631.71 28.6515 1639.42 25.4842C1647.09 13.6412 1655.54 25.0252 1663.39 24.612C1669.58 19.2414 1674.08 25.8973 1680.37 17.6807C1684.23 30.304 1688.04 14.8806 1691.71 15.9823C1694.09 16.579 1696.66 5.28695 1699.37 11.7133C1701.71 7.9034 1704.51 18.8742 1706.95 12.1265C1714.52 13.0904 1716.95 12.356 1722.69 4.09349C1734.86 -3.29686 1759.78 -0.161182 1774.84 9.34069C1782.64 7.59639 1790.49 9.98333 1798.29 9.34069C1808.99 4.70451 1819.64 10.9014 1830.33 9.43248C1841.03 5.34713 1851.68 9.34066 1862.37 9.38657C1868.71 11.2686 1873.02 14.1146 1878.76 12.0489C1883.12 14.1146 1888.08 7.8259 1892.49 11.8194C1900.61 9.15708 1901.21 -6.00514 1908 6.29681C1910.99 10.7035 1911.77 16.12 1914.38 12.4478C1916.04 9.55592 1917.69 12.2642 1919.29 17.2676C1922.05 23.8317 1923.29 27.8252 1922.92 25.3005C1931.6 33.9303 1955.65 25.9891 1969.01 30.8548C1978.65 32.5073 1988.19 35.6746 1998.61 32.6909C2004.4 28.6974 2007.38 36.3631 2012.66 37.6484C2020.19 39.2091 2029.42 34.0221 2037.08 38.1074C2047.64 40.2649 2058.06 32.3696 2068.48 36.8222C2078.9 37.1894 2089.32 39.4386 2099.92 35.5369C2100.11 37.5566 2079.27 75.1051 2079.27 76.9412Z" fill="white"/>
<path d="M0 116.901H2100V36.4014L1781.22 50.9014L1363.74 82.6418L545.899 63.4968H343.453L151.079 82.6418L0 54.4281V116.901Z" fill="white"/>
</svg>
